<?xml version="1.0" encoding="UTF-8"?>
<svg version="1.1" viewBox="0 0 1788 1068" width="447" height="267" xmlns="http://www.w3.org/2000/svg">
<path transform="translate(0)" d="m0 0h1788v1068h-1788z" fill="#782DDD"/>
<path transform="translate(618,326)" d="m0 0h495l17 1 14 5 9 6 10 9 9 14 4 9 3 22v116l-2 2-20 4-13 8-10 9-8 11-5 11-2 7-1 16 3 15 6 12 8 10 1 3 4 2 7 6 12 6 17 4 2 1 1 3v113l-2 17-4 13-6 10-8 10-12 9-11 5-7 2h-513l-13-4-12-7-9-8-8-11-6-13-3-16v-123l7-2 16-4 10-5 10-8 8-10 7-15 3-11v-14l-3-13-7-14-11-13-12-9-10-4-15-3-3-2-1-32v-44l1-48 3-15 7-14 9-11 8-7 9-6 11-4z" fill="#FEFFFE"/>
<path transform="translate(871,387)" d="m0 0 3 1 8 19 9 23 5 12 18 46 6 13 2 1 43 3 82 4-2 4-11 10-11 9-14 12-14 11-15 13-11 9-13 11-6 5 1 10 10 36 18 71 1 7-10-5-17-11-20-13-44-28-16-11-5 2-15 10-24 15-15 10-41 26-7 4h-2l2-11 22-85 6-21-1-7-13-11-14-11-13-11-14-11-13-11-10-8-15-13-5-5v-2l60-3 67-4 3-5 11-27 15-39 12-30 6-13z" fill="#782DDD"/>
</svg>
